<svg xmlns="http://www.w3.org/2000/svg" xmlns:svgjs="http://svgjs.com/svgjs" xmlns:xlink="http://www.w3.org/1999/xlink" width="288" height="288"><svg xmlns="http://www.w3.org/2000/svg" width="288" height="288" version="1.0" viewBox="0 0 318 200"><path fill="red" d="M10 1000 l0 -990 528 0 527 0 287 828 287 827 1 -827 0 -828 458 0c563 0 643 9 811 95 140 71 245 246 258 432 15 212 -83 392 -259 476 -40 20
-81 38 -92 41 -15 5 -7 14 40 45 134 86 203 204 212 357 7 138 -32 250 -122
351 -91 101 -211 154 -396 173 -56 5 -306 10 -555 10 l-453 0 -30 -87 c-16
-49 -133 -389 -259 -758 -127 -369 -244 -710 -260 -760 l-30 -90 -282 848
-283 847 -194 0 -194 0 0 -990z m2470 750 c184 -14 254 -50 307 -158 24 -49
28 -69 28 -142 0 -75 -4 -91 -30 -140 -32 -59 -97 -111 -163 -130 -54 -16
-270 -29 -489 -30 l-193 0 0 305 0 305 213 0 c116 0 264 -5 327 -10z m-1965
-804 c135 -396 245 -723 245 -728 0 -4 -112 -8 -250 -8 l-250 0 1 738 c0 405
2 733 5 727 2 -5 114 -334 249 -729z m2108 -41 c127 -27 204 -84 251 -184 30
-66 30 -216 0 -282 -45 -97 -122 -155 -246 -184 -49 -11 -135 -15 -375 -15
l-313 0 0 340 0 340 308 0 c229 0 324 -4 375 -15z" class="color000 svgShape" transform="matrix(.1 0 0 -.1 0 200)"/></svg></svg>